<svg width="317" height="239" viewBox="0 0 317 239" fill="none" xmlns="http://www.w3.org/2000/svg">
<path opacity="0.3" d="M81.1837 47.8502C54.2783 54.2795 33.0234 69.2548 29.6157 96.7715C26.7468 119.952 33.3721 159.352 79.0281 163.546C171.323 172.02 269.648 180.511 282.946 140.556C291.965 113.467 294.937 64.9977 245.128 50.1017C211.344 39.986 138.854 34.08 81.1837 47.8502Z" fill="#E6E6E6"/>
<path opacity="0.45" d="M161.179 199.236C230.158 199.236 286.077 194.444 286.077 188.534C286.077 182.623 230.158 177.831 161.179 177.831C92.1994 177.831 36.2807 182.623 36.2807 188.534C36.2807 194.444 92.1994 199.236 161.179 199.236Z" fill="#E6E6E6"/>
<path d="M143.443 130.527C144.143 130.733 144.896 130.668 145.551 130.345C146.205 130.088 146.78 129.661 147.215 129.108C147.649 128.548 147.845 127.839 147.762 127.134C147.752 126.977 147.707 126.824 147.63 126.687C147.553 126.55 147.447 126.432 147.318 126.342C147.112 126.223 146.842 126.215 146.644 126.088C146.445 125.914 146.281 125.705 146.161 125.469C145.971 125.229 145.731 125.033 145.457 124.895C145.183 124.758 144.882 124.684 144.576 124.677C143.954 124.67 143.338 124.805 142.777 125.073C142.371 125.209 142 125.433 141.69 125.729C141.38 126.025 141.14 126.386 140.986 126.785C140.909 127.239 140.966 127.705 141.149 128.127C141.331 128.549 141.633 128.909 142.016 129.164C142.807 129.658 143.688 129.992 144.608 130.147" fill="#24285B"/>
<path d="M127.664 124.78C127.936 124.487 128.278 124.267 128.657 124.141C129.037 124.015 129.442 123.986 129.835 124.058C130.092 124.135 130.36 124.167 130.628 124.154C130.839 124.096 131.041 124.01 131.23 123.9C132.26 123.424 133.465 123.852 134.519 124.288C134.867 124.462 135.248 124.56 135.636 124.574C135.964 124.546 136.285 124.466 136.587 124.336C137.309 124.084 138.051 123.898 138.806 123.781C138.987 123.733 139.175 123.722 139.361 123.747C139.546 123.773 139.724 123.836 139.884 123.932C140.032 124.07 140.169 124.218 140.296 124.375C140.599 124.624 140.969 124.776 141.358 124.812C142.166 124.845 142.945 125.121 143.593 125.604C143.799 125.81 143.95 126.064 144.148 126.262C144.346 126.46 144.544 126.587 144.718 126.778C144.925 127.092 145.067 127.445 145.137 127.815C145.206 128.185 145.201 128.566 145.123 128.934C145.12 129.151 145.063 129.363 144.956 129.552C144.73 129.795 144.416 129.937 144.084 129.949L139.742 130.646C136.857 131.106 133.972 131.574 131.064 131.923C129.594 132.156 128.1 132.204 126.618 132.065C125.033 131.859 124.605 131.185 124.47 129.687C124.256 127.38 126.332 126.223 127.664 124.78Z" fill="#E6E6E6"/>
<path d="M149.133 127.158H123.559V138.09H149.133V127.158Z" fill="#FFD200"/>
<path d="M102.232 125.842L104.309 120.586L108.897 108.956L113.557 97.1203C114.762 94.0841 115.982 91.1826 117.464 88.2652C117.903 87.287 118.48 86.3767 119.176 85.5619C119.526 85.1547 119.959 84.8268 120.445 84.5999C120.932 84.373 121.461 84.2523 121.997 84.2459C122.135 84.2372 122.271 84.2734 122.386 84.349C122.474 84.4283 122.539 84.5295 122.576 84.6423C123.034 85.8993 123.07 87.2712 122.679 88.5506C122.396 89.5145 122.047 90.4576 121.633 91.3728C121.351 92.0929 121.182 92.8524 121.134 93.6243C121.134 93.7194 121.094 93.8938 121.078 94.0048L120.674 96.7081L119.089 107.18L117.29 119.262C116.915 121.783 116.54 124.299 116.165 126.809C116.165 126.92 116.957 122.758 116.101 127.277C115.245 131.796 107.328 139.771 102.232 125.842Z" fill="#F4A28C"/>
<path d="M146.565 155.174C146.565 155.174 153.515 161.722 144.512 161.461C135.51 161.199 138.822 154.191 146.565 155.174Z" fill="#FEC878"/>
<path d="M94.68 81.5109C94.68 81.5109 108.153 91.5869 101.813 95.4714C95.4725 99.356 90.567 80.5754 90.567 80.5754L94.68 81.5109Z" fill="#24285B"/>
<path d="M94.6165 72.9253C94.6165 72.9253 95.6309 77.1903 95.3219 80.179C95.2923 80.4681 95.2057 80.7484 95.067 81.0037C94.9284 81.259 94.7404 81.4842 94.5142 81.6663C94.2879 81.8485 94.0277 81.9839 93.7487 82.0647C93.4697 82.1455 93.1775 82.1701 92.8889 82.1372C91.954 82.0923 91.0518 81.7791 90.2901 81.2351C89.5284 80.6911 88.9394 79.9391 88.5935 79.0692L86.7391 75.4621C86.448 74.7012 86.3983 73.8691 86.5968 73.079C86.7954 72.2889 87.2324 71.5792 87.8486 71.0464C90.0359 68.9298 94.1331 70.2854 94.6165 72.9253Z" fill="#F4A28C"/>
<path d="M87.1038 77.6977L88.451 92.015L96.2888 90.7069L92.1599 80.8132L87.1038 77.6977Z" fill="#F4A28C"/>
<path d="M90.5511 77.3172C90.5511 77.3172 90.2737 75.6524 89.0374 75.9615C87.8011 76.2707 88.1894 78.6886 89.925 78.6648L90.5511 77.3172Z" fill="#F4A28C"/>
<path d="M95.1 75.6444L96.5582 77.1428C96.6406 77.2281 96.7002 77.3328 96.7315 77.4473C96.7627 77.5617 96.7646 77.6822 96.7369 77.7976C96.7093 77.913 96.653 78.0195 96.5733 78.1074C96.4935 78.1952 96.393 78.2615 96.2808 78.3002L94.6958 78.8551L95.1 75.6444Z" fill="#F4A28C"/>
<path d="M120.65 143.457C120.65 143.457 147.461 136.655 150.955 148.507C154.45 160.359 113.47 159.194 113.47 159.194L104.142 151.813L120.65 143.457Z" fill="#24285B"/>
<path d="M93.0078 89.9934C93.0078 89.9934 108.612 91.5789 119.485 104.017C125.944 111.398 123.503 117.55 120.452 121.331C119.172 122.95 118.316 124.863 117.96 126.896C117.604 128.929 117.761 131.019 118.415 132.977L121.649 143.053C121.649 143.053 104.388 154.152 93.4833 153.01C82.5785 151.868 48.2632 91.7058 93.0078 89.9934Z" fill="#FEC878"/>
<path opacity="0.08" d="M71.753 102.63C71.753 102.63 69.8193 108.552 70.8733 114.276C71.9273 119.999 77.3242 158.012 113.106 147.746L121.649 142.99L112.583 135.355L95.2347 117.201L87.6426 102.622L71.753 102.63Z" fill="black"/>
<path d="M84.005 128.316C76.3336 105.072 42.0897 108.877 39.1574 133.183C36.138 158.274 39.5616 182.818 79.9395 187.313C144.132 194.448 154.26 175.509 145.202 160.224C136.144 144.94 91.0741 152.97 84.3458 129.402C84.2428 129.013 84.1318 128.664 84.005 128.316Z" fill="#E6E6E6"/>
<path d="M136.968 141.412C136.968 141.412 145.923 143.584 146.565 137.884L136.968 136.846V141.412Z" fill="#F4A28C"/>
<path d="M82.5468 103.28C82.4517 97.8972 88.4747 94.4329 92.9603 97.3978C96.0352 99.4273 99.0625 103.605 100.885 111.818C104.452 127.864 113.328 134.808 136.968 136.846V141.412C136.968 141.412 83.5058 155.008 82.5468 103.28Z" fill="#F4A28C"/>
<path d="M93.729 73.9638C94.245 73.7576 94.6978 73.4193 95.042 72.9828C95.3861 72.5464 95.6095 72.0271 95.6898 71.4771C95.7701 70.927 95.7044 70.3655 95.4993 69.8488C95.2943 69.3322 94.9571 68.8785 94.5215 68.5334C94.0376 68.1579 93.5043 67.8511 92.9365 67.6217C89.2038 66.0362 80.2565 67.154 80.8508 75.6444C81.4452 84.1349 67.2753 103.439 80.0583 108.679C92.8414 113.919 103.501 106.998 103.501 100.751C103.501 94.5042 91.3594 93.0376 90.5669 87.5993C90.242 85.3795 89.9329 83.033 89.6714 81.0273C89.4923 79.5692 89.791 78.0924 90.5227 76.8187C91.2544 75.545 92.3795 74.5432 93.729 73.9638Z" fill="#24285B"/>
<path opacity="0.45" d="M62.6076 154.73C58.0903 150.608 51.0133 155.127 52.9628 160.922C55.7287 169.119 62.0845 177.158 76.0484 179.536C107.423 184.879 104.364 173.265 102.336 168.199C100.648 164.061 79.8999 170.514 62.6076 154.73Z" fill="white"/>
<path d="M123.194 77.1269C123.194 77.1269 122.235 73.2899 125.389 71.7995L125.801 72.9253C125.801 72.9253 124.074 72.9887 123.804 77.222L123.194 77.1269Z" fill="#FEC878"/>
<path opacity="0.08" d="M123.194 77.1269C123.194 77.1269 122.235 73.2899 125.389 71.7995L125.801 72.9253C125.801 72.9253 124.074 72.9887 123.804 77.222L123.194 77.1269Z" fill="black"/>
<path d="M120.642 87.6231C121.403 87.4634 122.194 87.561 122.893 87.9005L123.139 88.0195C123.486 88.1908 123.873 88.2657 124.259 88.2364C124.645 88.2071 125.016 88.0747 125.334 87.853C126.521 87.0761 127.526 86.0508 128.278 84.8477C129.031 83.6446 129.513 82.2924 129.693 80.8846C130.073 76.7781 127.608 75.9457 125.437 76.461C124.384 76.7099 123.275 76.5303 122.354 75.9615C121.875 75.6124 121.317 75.3858 120.73 75.3015C120.143 75.2172 119.544 75.2778 118.986 75.478C116.791 76.4451 115.618 83.3025 118.875 87.0364C119.09 87.2841 119.367 87.4693 119.678 87.5725C119.989 87.6758 120.322 87.6932 120.642 87.6231Z" fill="#FFD200"/>
<path opacity="0.43" d="M128.385 79.3228C128.442 81.0368 128.007 82.7312 127.133 84.2063C127.074 84.3005 126.985 84.3729 126.882 84.4128C126.778 84.4526 126.664 84.4578 126.557 84.4275C126.45 84.3971 126.355 84.3329 126.288 84.2444C126.22 84.156 126.183 84.048 126.182 83.9367V79.3625C126.18 79.1871 126.22 79.0139 126.299 78.8573C126.378 78.7008 126.494 78.5655 126.636 78.463C126.778 78.3604 126.943 78.2935 127.116 78.2679C127.289 78.2423 127.466 78.2589 127.632 78.316C127.847 78.384 128.035 78.5177 128.171 78.6983C128.306 78.8789 128.381 79.0973 128.385 79.3228Z" fill="white"/>
<path d="M123.511 73.6229C123.511 73.6229 123.614 69.5719 119.208 70.4519C119.208 70.4122 119.255 74.5187 123.511 73.6229Z" fill="#FEC878"/>
<path opacity="0.46" d="M123.511 73.6229C123.511 73.6229 123.614 69.5719 119.208 70.4519C119.208 70.4122 119.255 74.5187 123.511 73.6229Z" fill="white"/>
<path d="M207.453 131.265C203.783 135.609 199.06 139.256 193.552 140.659C192.784 140.745 192.074 141.108 191.555 141.681C191.374 142.064 191.285 142.483 191.297 142.906C191.308 143.329 191.418 143.743 191.619 144.115C193.006 147.479 195.471 150.286 198.627 152.094C201.784 153.902 205.452 154.609 209.054 154.104C212.001 153.539 214.803 152.379 217.288 150.695C219.654 149.291 221.674 147.373 223.2 145.082C224.975 142.189 225.474 138.701 225.664 135.316C225.839 132.259 225.799 129.194 225.545 126.143C225.26 122.782 222.819 114.545 217.684 116.178C215.568 116.844 214.165 121.331 213.111 123.115C211.461 125.988 209.568 128.714 207.453 131.265Z" fill="#FEC878"/>
<path opacity="0.08" d="M207.453 131.265C203.783 135.609 199.06 139.256 193.552 140.659C192.784 140.745 192.074 141.108 191.555 141.681C191.374 142.064 191.285 142.483 191.297 142.906C191.308 143.329 191.418 143.743 191.619 144.115C193.006 147.479 195.471 150.286 198.627 152.094C201.784 153.902 205.452 154.609 209.054 154.104C212.001 153.539 214.803 152.379 217.288 150.695C219.654 149.291 221.674 147.373 223.2 145.082C224.975 142.189 225.474 138.701 225.664 135.316C225.839 132.259 225.799 129.194 225.545 126.143C225.26 122.782 222.819 114.545 217.684 116.178C215.568 116.844 214.165 121.331 213.111 123.115C211.461 125.988 209.568 128.714 207.453 131.265Z" fill="black"/>
<path d="M201.35 136.481C202.054 136.687 202.809 136.622 203.466 136.299C204.121 136.041 204.696 135.615 205.131 135.062C205.347 134.785 205.506 134.468 205.598 134.129C205.691 133.79 205.715 133.436 205.67 133.088C205.659 132.931 205.613 132.779 205.537 132.642C205.46 132.505 205.354 132.386 205.226 132.295C205.02 132.176 204.758 132.168 204.552 132.041C204.355 131.868 204.194 131.658 204.077 131.423C203.888 131.181 203.648 130.985 203.374 130.848C203.1 130.71 202.798 130.636 202.492 130.63C201.872 130.623 201.259 130.758 200.701 131.027C200.295 131.163 199.925 131.387 199.617 131.683C199.309 131.979 199.07 132.34 198.918 132.739C198.842 133.194 198.899 133.66 199.084 134.082C199.268 134.505 199.571 134.864 199.956 135.117C200.743 135.614 201.621 135.948 202.539 136.1" fill="#24285B"/>
<path d="M185.596 130.733C185.87 130.443 186.212 130.225 186.591 130.099C186.969 129.974 187.374 129.944 187.767 130.012C188.024 130.087 188.292 130.119 188.559 130.107C188.766 130.049 188.966 129.966 189.154 129.861C190.192 129.386 191.397 129.814 192.451 130.242C192.799 130.417 193.179 130.517 193.568 130.535C193.893 130.504 194.212 130.421 194.511 130.289C195.232 130.037 195.975 129.853 196.73 129.742C196.91 129.693 197.098 129.68 197.284 129.704C197.469 129.729 197.647 129.79 197.808 129.885C197.957 130.021 198.095 130.17 198.22 130.329C198.525 130.579 198.898 130.731 199.29 130.765C200.095 130.801 200.87 131.077 201.517 131.558C201.723 131.764 201.873 132.018 202.072 132.224C202.27 132.43 202.476 132.541 202.642 132.731C202.849 133.047 202.992 133.401 203.061 133.773C203.131 134.144 203.126 134.526 203.046 134.895C203.048 135.109 202.993 135.32 202.888 135.506C202.66 135.747 202.347 135.889 202.016 135.902L197.673 136.6C194.781 137.068 191.896 137.527 188.995 137.884C187.522 138.115 186.026 138.16 184.541 138.019C182.956 137.813 182.529 137.139 182.402 135.641C182.196 133.342 184.264 132.184 185.596 130.733Z" fill="#E6E6E6"/>
<path d="M207.064 133.12H181.49V144.052H207.064V133.12Z" fill="#FFD200"/>
<path d="M180.468 102.503H172.923C172.796 102.503 172.669 102.529 172.551 102.579C172.434 102.63 172.327 102.703 172.239 102.796C172.151 102.889 172.083 102.999 172.038 103.119C171.994 103.239 171.974 103.366 171.98 103.494L172.599 115.956C172.625 116.386 172.814 116.79 173.128 117.084C173.442 117.379 173.856 117.543 174.287 117.542H179.224C179.661 117.542 180.081 117.373 180.396 117.07C180.71 116.767 180.895 116.353 180.912 115.917L181.411 103.462C181.412 103.338 181.389 103.214 181.342 103.098C181.295 102.982 181.226 102.877 181.138 102.787C181.051 102.698 180.946 102.627 180.831 102.579C180.716 102.53 180.593 102.504 180.468 102.503Z" fill="#FEC878"/>
<path d="M178.312 114.22L177.758 114.181L178.74 99.9584C178.743 99.9202 178.754 99.8829 178.772 99.8488C178.789 99.8148 178.814 99.7847 178.843 99.7602C178.908 99.7148 178.987 99.695 179.065 99.7048L183.638 100.498L183.551 101.045L179.271 100.323L178.312 114.22Z" fill="#24285B"/>
<path opacity="0.44" d="M180.207 107.054H173.248L173.557 115.536C173.568 115.809 173.683 116.067 173.88 116.256C174.076 116.446 174.339 116.551 174.612 116.551H178.788C179.059 116.551 179.321 116.447 179.517 116.259C179.713 116.072 179.83 115.815 179.842 115.544L180.207 107.054Z" fill="white"/>
<path d="M224.634 71.9343C224.634 71.9343 224.515 76.9446 225.561 80.2108C225.775 80.8393 226.227 81.3583 226.821 81.6551C227.414 81.9519 228.101 82.0027 228.731 81.7963C229.768 81.5263 230.704 80.9619 231.427 80.1713C232.15 79.3807 232.628 78.3977 232.805 77.341L234.025 72.8777C234.176 71.9576 234.037 71.0136 233.628 70.1758C233.219 69.338 232.561 68.6478 231.743 68.2004C228.811 66.385 224.555 68.8584 224.634 71.9343Z" fill="#F4A28C"/>
<path d="M233.819 73.7022L237.425 89.7397L228.446 91.0954L229.429 78.8789L233.819 73.7022Z" fill="#F4A28C"/>
<path d="M225.863 72.0453C227.412 72.008 228.951 71.7925 230.451 71.4032C230.047 72.1106 229.859 72.9212 229.911 73.7343C229.964 74.5474 230.253 75.3274 230.744 75.9774C231.204 76.6197 231.874 77.0813 232.638 77.2825C233.402 77.4837 234.212 77.4118 234.929 77.0793L234.445 70.65C234.406 69.7286 234.119 68.8349 233.614 68.0632C233.109 67.2916 232.405 66.6707 231.576 66.2661C230.856 65.9174 230.115 65.6129 229.357 65.3544C227.463 64.7281 224.832 66.1472 223.089 64.9897C222.913 64.8772 222.712 64.8117 222.504 64.7997C222.296 64.7877 222.088 64.8295 221.901 64.9211C221.714 65.0128 221.553 65.1511 221.435 65.3228C221.317 65.4945 221.245 65.6938 221.226 65.9014C221.06 67.8754 221.607 70.9354 224.317 71.8392C224.818 71.9908 225.34 72.0604 225.863 72.0453Z" fill="#24285B"/>
<path d="M230.221 75.8981C230.221 75.8981 230.134 73.9638 231.592 74.0272C233.051 74.0906 233.177 76.8653 231.236 77.2537L230.221 75.8981Z" fill="#F4A28C"/>
<path d="M224.721 75.1054L223.485 77.0952C223.409 77.2094 223.364 77.3414 223.354 77.4783C223.344 77.6152 223.37 77.7523 223.429 77.8761C223.489 78 223.579 78.1064 223.691 78.1849C223.804 78.2634 223.935 78.3113 224.071 78.324L226.005 78.5618L224.721 75.1054Z" fill="#F4A28C"/>
<path opacity="0.31" d="M229.104 81.5426C230.21 81.1899 231.188 80.52 231.917 79.6162C231.917 79.6162 231.981 82.6207 228.874 85.7918L229.104 81.5426Z" fill="#CE8172"/>
<path d="M241.784 153.137L217.518 151.551C217.518 151.551 217.169 149.173 216.638 145.304C216.257 142.522 215.774 138.962 215.259 135.078C214.411 128.633 213.476 121.157 212.731 114.292C210.9 97.5088 228.446 91.0795 228.446 91.0795L237.425 89.7239C278.223 96.066 241.784 153.137 241.784 153.137Z" fill="#FEC878"/>
<path opacity="0.08" d="M239.715 128.633C228.406 142.403 224.967 150.759 224.967 150.759L216.638 145.32C216.257 142.538 215.774 138.978 215.259 135.094L221.9 125.287L241.316 103.486L241.926 103.629C241.926 103.629 251.024 114.862 239.715 128.633Z" fill="black"/>
<path d="M241.126 99.7523C240.565 97.7576 239.278 96.0455 237.517 94.9536C235.757 93.8618 233.651 93.4695 231.616 93.8542C227.004 94.7421 221.504 97.818 219.57 107.196C218.05 114.772 215.306 122.05 211.447 128.744C211.065 129.394 210.545 129.953 209.922 130.38C209.3 130.807 208.592 131.091 207.847 131.213C207.103 131.335 206.341 131.291 205.615 131.085C204.889 130.879 204.218 130.515 203.649 130.02L184.343 113.372L180.016 118.454L202.587 142.038C204.076 143.595 206.057 144.589 208.195 144.85C210.333 145.112 212.496 144.625 214.316 143.473C225.641 136.299 246.872 119.833 241.126 99.7523Z" fill="#FEC878"/>
<path opacity="0.46" d="M241.126 99.7523C240.565 97.7576 239.278 96.0455 237.517 94.9536C235.757 93.8618 233.651 93.4695 231.616 93.8542C227.004 94.7421 221.504 97.818 219.57 107.196C218.05 114.772 215.306 122.05 211.447 128.744C211.065 129.394 210.545 129.953 209.922 130.38C209.3 130.807 208.592 131.091 207.847 131.213C207.103 131.335 206.341 131.291 205.615 131.085C204.889 130.879 204.218 130.515 203.649 130.02L184.343 113.372L180.016 118.454L202.587 142.038C204.076 143.595 206.057 144.589 208.195 144.85C210.333 145.112 212.496 144.625 214.316 143.473C225.641 136.299 246.872 119.833 241.126 99.7523Z" fill="white"/>
<path d="M184.335 113.356C184.335 113.356 178.415 107.109 175.341 111.398C172.266 115.687 180.008 118.438 180.008 118.438L184.335 113.356Z" fill="#F4A28C"/>
<path d="M186.19 155.174C186.19 155.174 179.24 161.722 188.25 161.461C197.261 161.199 193.941 154.191 186.19 155.174Z" fill="#FEC878"/>
<path d="M215.108 144.979C215.108 144.979 185.302 136.655 181.823 148.507C178.344 160.359 219.308 159.194 219.308 159.194L228.628 151.813L215.108 144.979Z" fill="#24285B"/>
<path d="M238.336 128.316C246.008 105.072 280.26 108.877 283.184 133.183C286.203 158.274 282.78 182.818 242.402 187.313C178.21 194.448 168.081 175.509 177.14 160.224C186.198 144.94 231.267 152.97 238.004 129.402C238.107 129.013 238.218 128.664 238.336 128.316Z" fill="#E6E6E6"/>
<path opacity="0.45" d="M259.75 154.73C264.267 150.608 271.344 155.127 269.395 160.922C266.637 169.119 260.273 177.158 246.309 179.536C214.942 184.879 218.001 173.265 220.022 168.199C221.67 164.061 242.45 170.514 259.75 154.73Z" fill="white"/>
<path opacity="0.58" d="M60.6342 178.688C60.6342 178.688 52.8677 176.563 51.1797 169.333C51.1797 169.333 63.2098 166.907 63.5506 179.33L60.6342 178.688Z" fill="#FEC878"/>
<path opacity="0.73" d="M61.5852 177.919C61.5852 177.919 56.1566 169.333 60.9354 161.318C60.9354 161.318 70.0808 167.129 66.0153 177.966L61.5852 177.919Z" fill="#FEC878"/>
<path d="M62.9799 177.927C62.9799 177.927 65.8488 168.865 74.4949 167.145C74.4949 167.145 76.0799 173.027 68.884 177.95L62.9799 177.927Z" fill="#FEC878"/>
<path d="M57.3532 177.72L58.9224 188.494L68.8365 188.534L70.3027 177.776L57.3532 177.72Z" fill="#24285B"/>
</svg>
